<svg xmlns="http://www.w3.org/2000/svg" viewBox="0 -1.5 100 100" style="color:#171916"><g fill="currentColor"><path d="M0 0 C0.11 -0 0.11 -0 0.67 -0.01 C4.84 -0.03 7.48 0.96 10.68 3.72 C12.06 5.34 12.35 6.87 12.39 8.96 C12.4 9.21 12.4 9.46 12.41 9.72 C12.42 10.25 12.42 10.78 12.43 11.32 C12.44 12.11 12.47 12.91 12.5 13.71 C12.58 17.53 11.73 20.39 9.19 23.31 C8.24 24.26 7.17 24.96 6 25.62 C5.73 25.79 5.45 25.96 5.17 26.13 C4.52 26.54 3.86 26.93 3.19 27.31 C3.63 29.82 4.17 32.67 6.27 34.31 C9.46 36.27 13.07 36.68 16.69 37.25 C21.47 38 25.56 38.98 28.72 42.99 C31.19 46.54 31.63 50.09 31.19 54.31 C31.5 54.39 31.82 54.46 32.14 54.54 C35.28 55.44 37.28 56.97 39.07 59.72 C40.69 62.66 40.62 65.74 39.74 68.91 C38.73 71.97 35.95 74.32 33.23 75.93 C30.75 77.05 26.96 76.84 24.41 76.08 C23.69 75.78 23.04 75.45 22.38 75.06 C22.18 74.95 21.99 74.84 21.79 74.73 C19.79 73.4 18.62 71.06 18.05 68.77 C17.81 67.47 17.75 66.19 17.75 64.88 C17.75 64.68 17.75 64.48 17.74 64.28 C17.74 61.74 18.03 59.99 19.88 58.1 C20.77 57.32 21.67 56.57 22.59 55.83 C23.83 54.76 24.79 53.46 25.15 51.85 C25.28 49.93 24.36 47.8 23.19 46.31 C20.57 43.61 16.39 43.37 12.88 42.71 C12.02 42.55 11.17 42.37 10.32 42.19 C10.06 42.15 9.81 42.1 9.55 42.06 C6.73 41.46 5.8 40.27 3.19 38.31 C3.19 47.22 3.19 56.13 3.19 65.31 C4.51 65.97 5.83 66.63 7.19 67.31 C9.68 69.72 10.6 72.84 10.69 76.25 C10.69 79.49 9.77 82.02 7.6 84.49 C5.04 86.91 1.86 87.56 -1.59 87.55 C-4.97 87.42 -7.53 85.74 -9.81 83.31 C-11.73 81.18 -12.19 78.49 -12.19 75.67 C-12.03 73.52 -11.27 71.87 -10.12 70.06 C-9.98 69.82 -9.83 69.57 -9.68 69.32 C-7.81 66.68 -6.21 66.67 -2.81 65.31 C-2.81 56.4 -2.81 47.49 -2.81 38.31 C-4.13 38.97 -4.13 38.97 -10.81 42.31 C-12.95 42.94 -15.02 43.5 -17.19 43.94 C-17.97 44.1 -18.75 44.26 -19.53 44.44 C-20.01 44.54 -20.48 44.64 -20.96 44.73 C-22.69 45.11 -23.76 45.88 -24.81 47.31 C-25.24 48.4 -25.24 49.46 -25.25 50.62 C-25.25 50.93 -25.26 51.24 -25.26 51.56 C-25.13 54.1 -24.21 55.48 -22.38 57.19 C-21.72 57.76 -21.07 58.32 -20.39 58.85 C-20.2 59 -20.01 59.16 -19.81 59.31 C-19.63 59.46 -19.44 59.6 -19.25 59.75 C-18.64 60.54 -18.65 61.28 -18.64 62.24 C-18.64 62.43 -18.64 62.62 -18.63 62.81 C-18.63 63.21 -18.63 63.61 -18.63 64.01 C-18.63 64.61 -18.61 65.21 -18.59 65.81 C-18.54 68.91 -19.25 71.53 -21.33 73.91 C-21.87 74.37 -22.38 74.72 -23 75.06 C-23.21 75.18 -23.42 75.3 -23.64 75.43 C-26.67 76.96 -30.33 77.06 -33.56 76.09 C-36.43 74.95 -39.06 72.72 -40.36 69.9 C-41.47 66.7 -41.22 62.4 -39.81 59.31 C-38.47 57.17 -36.09 55.35 -33.81 54.31 C-33.06 54.18 -32.57 54.2 -31.81 54.31 C-31.8 54.1 -31.79 53.89 -31.78 53.67 C-31.53 49.03 -31.05 44.36 -27.58 40.91 C-24.31 38.38 -19.59 37.65 -15.62 36.87 C-14.94 36.73 -14.25 36.58 -13.56 36.44 C-13.4 36.4 -13.23 36.37 -13.06 36.33 C-10.47 35.75 -8.7 34.74 -6.81 32.88 C-6.6 32.67 -6.4 32.46 -6.18 32.25 C-5.19 31.14 -4.67 30.24 -4.55 28.74 C-4.61 27.91 -4.66 27.48 -5.22 26.86 C-5.82 26.47 -6.42 26.17 -7.06 25.88 C-7.52 25.62 -7.98 25.37 -8.44 25.11 C-8.67 24.97 -8.9 24.84 -9.14 24.71 C-11.62 23.25 -13.5 21.74 -14.26 18.84 C-15.39 13.87 -15.03 9.39 -12.3 4.99 C-9.36 0.88 -4.75 0.06 0 0 Z M-8.16 8.05 C-9.42 10.31 -10.29 12.7 -9.81 15.31 C-8.87 17.71 -7.15 20.65 -4.85 21.96 C-2.49 22.92 0.57 22.93 2.94 22.03 C5.29 20.83 6.99 19.2 7.82 16.66 C8.47 13.96 8.58 11.57 7.22 9.09 C6.61 8.11 5.95 7.18 5.19 6.31 C5.05 6.13 4.9 5.95 4.76 5.77 C3.97 5.14 3.23 5.12 2.26 5.07 C2.07 5.06 1.89 5.05 1.69 5.04 C-5.87 4.73 -5.87 4.73 -8.16 8.05 Z " transform="translate(49.8125,3.6875)"/></g><g fill="#C8FF3D"><path d="M0 0 C1.73 1.25 2.25 3.42 2.66 5.41 C3.11 8.44 2.61 11.02 0.85 13.54 C-0.76 15.6 -2.73 16.65 -5.32 16.99 C-7.74 17.14 -9.44 16.61 -11.3 15.05 C-13.66 12.79 -15.12 10.33 -15.29 7.03 C-15.2 4.77 -14.15 2.69 -12.68 0.99 C-10.11 -1.21 -3.04 -1.55 0 0 Z " transform="translate(55.15234375,9.4609375)"/></g></svg>
